<svg width="245" height="34" title="logo" viewBox="0 0 245 34" fill="none" xmlns="http://www.w3.org/2000/svg">
<path d="M64.0334 25.0134V8.98669H68.1468C71.5001 8.98669 73.3001 10.8267 73.3001 13.2534C73.3001 14.5734 72.8268 15.46 71.5468 16.48C73.2601 17.1934 74.2068 18.7134 74.2068 20.42C74.2068 22.6067 72.9734 25.0134 68.7934 25.0134H64.0334ZM68.1734 15.8934C71.2468 15.8934 71.7001 14.12 71.7001 13.1867C71.7001 11.9934 71.0068 10.44 68.0401 10.44H65.6334V15.8934H68.1734ZM68.6668 23.56C70.7268 23.56 72.6068 22.74 72.6068 20.42C72.6068 18.6 71.0268 17.3467 68.6668 17.3467H65.6334V23.56H68.6668Z" fill="#333333"/>
<path d="M91.1201 25.2933C86.7468 25.2933 82.6534 21.74 82.6534 17.0867C82.6534 12.4733 86.4201 8.70667 91.1201 8.70667C95.7734 8.70667 99.6068 12.4333 99.6068 17C99.6068 21.5267 95.7734 25.2933 91.1201 25.2933ZM91.1001 10.16C87.3134 10.16 84.2601 13.3667 84.2601 17.0867C84.2601 20.7 87.4001 23.84 91.1268 23.84C94.9601 23.84 98.0134 20.7 98.0134 17.02C98.0068 13.32 94.9534 10.16 91.1001 10.16Z" fill="#333333"/>
<path d="M116.8 25.2933C112.427 25.2933 108.333 21.74 108.333 17.0867C108.333 12.4733 112.1 8.70667 116.8 8.70667C121.453 8.70667 125.287 12.4333 125.287 17C125.287 21.5267 121.453 25.2933 116.8 25.2933ZM116.78 10.16C112.993 10.16 109.94 13.3667 109.94 17.0867C109.94 20.7 113.08 23.84 116.807 23.84C120.64 23.84 123.693 20.7 123.693 17.02C123.687 13.32 120.633 10.16 116.78 10.16Z" fill="#333333"/>
<path d="M143.86 25.0134L138.513 18.06L136.433 20.6134V25.0067H134.833V8.98669H136.433V18.1867H136.473L143.813 8.98669H145.873L139.527 16.8L145.873 25.0067H143.86V25.0134Z" fill="#333333"/>
<path d="M169.433 20.8134C167.873 23.6067 165.08 25.2934 162.047 25.2934C157.48 25.2934 153.667 21.68 153.667 17.02C153.667 12.32 157.413 8.72668 162.027 8.72668C164.993 8.72668 168.087 10.44 169.367 13.1H167.567C166.333 11.26 164.167 10.18 162 10.18C158.427 10.18 155.267 13.34 155.267 17.0467C155.267 20.64 158.427 23.8467 162.02 23.8467C164.207 23.8467 166.18 22.74 167.627 20.8134H169.433Z" fill="#333333"/>
<path d="M178.98 25.0134V8.98669H180.58V23.56H187.207V25.0134H178.98Z" fill="#333333"/>
<path d="M205.007 8.98669H206.607V19.14C206.607 23.1867 204.247 25.2867 201.153 25.2867C198.1 25.2867 195.7 23.2534 195.7 19.0934V8.98669H197.3V19.1867C197.3 22.4134 199.033 23.84 201.153 23.84C202.993 23.84 205.007 22.6934 205.007 19.2067V8.98669Z" fill="#333333"/>
<path d="M216.713 25.0134V8.98669H220.827C224.18 8.98669 225.98 10.8267 225.98 13.2534C225.98 14.5734 225.507 15.46 224.227 16.48C225.94 17.1934 226.887 18.7134 226.887 20.42C226.887 22.6067 225.653 25.0134 221.473 25.0134H216.713ZM220.853 15.8934C223.927 15.8934 224.38 14.12 224.38 13.1867C224.38 11.9934 223.687 10.44 220.72 10.44H218.313V15.8934H220.853ZM221.347 23.56C223.407 23.56 225.287 22.74 225.287 20.42C225.287 18.6 223.707 17.3467 221.347 17.3467H218.313V23.56H221.347Z" fill="#333333"/>
<path d="M242.413 13.1933C242.413 11.6067 241.113 10.3933 239.673 10.3933C238.087 10.3933 236.873 11.5867 236.873 13.0933C236.873 14.4133 237.667 15.2267 239.867 15.7933C243.213 16.6533 244.34 18.3867 244.34 20.48C244.34 23.0133 242.267 25.02 239.673 25.02C236.933 25.02 234.947 23.18 234.907 20.42H236.453C236.56 22.4067 237.813 23.62 239.673 23.62C241.433 23.62 242.793 22.24 242.793 20.5467C242.793 18.8733 241.687 17.9333 239.653 17.3467C237.433 16.72 235.327 15.9867 235.327 13.16C235.327 10.7133 237.293 9 239.68 9C242.087 9 243.967 10.82 243.967 13.2067H242.413V13.1933Z" fill="#333333"/>
<path d="M37.6468 32.5067H13.0868C12.9001 32.5067 12.7534 32.6533 12.7534 32.84C12.7534 33.0267 12.9001 33.1733 13.0868 33.1733H37.6468C37.8334 33.1733 37.9801 33.0267 37.9801 32.84C37.9801 32.6533 37.8334 32.5067 37.6468 32.5067Z" fill="#333333"/>
<path d="M49.4067 17.04C42.74 17.04 37.3134 22.4666 37.3134 29.1333C37.3134 29.32 37.46 29.4666 37.6467 29.4666C37.8334 29.4666 37.98 29.32 37.98 29.1333C37.98 22.8333 43.1067 17.7066 49.4067 17.7066C49.5934 17.7066 49.74 17.56 49.74 17.3733C49.74 17.1866 49.5934 17.04 49.4067 17.04Z" fill="#333333"/>
<path d="M1.32674 8.65333C1.14007 8.65333 0.993408 8.79999 0.993408 8.98666C0.993408 9.17333 1.14007 9.31999 1.32674 9.31999C12.2067 9.31999 21.0601 18.1533 21.1001 29.0267C21.1001 29.0667 21.1001 29.1 21.1001 29.1333C21.1001 29.32 21.2467 29.4667 21.4334 29.4667C21.6201 29.4667 21.7667 29.32 21.7667 29.1333C21.7667 29.1267 21.7667 29.12 21.7667 29.1133C21.7667 29.1067 21.7734 29.1 21.7734 29.0933C21.7734 29.0667 21.7734 29.0467 21.7734 29.02C21.7934 24.1067 23.1001 19.5 25.3734 15.5067C27.4934 19.2333 28.7801 23.5 28.9534 28.0467C28.9334 28.4067 28.9267 28.7667 28.9267 29.1333C28.9267 29.32 29.0734 29.4667 29.2601 29.4667C29.2801 29.4667 29.2934 29.48 29.3134 29.48C29.5001 29.48 29.6467 29.3333 29.6467 29.1467C29.6467 28.7867 29.6334 28.4267 29.6201 28.0667C30.1801 17.66 38.8201 9.36666 49.3601 9.36666C49.5467 9.36666 49.6934 9.21999 49.6934 9.03333C49.6934 8.84666 49.5467 8.69999 49.3601 8.69999C39.5067 8.69999 31.2601 15.7133 29.3467 25.0067C28.8067 21.3467 27.5667 17.9067 25.7601 14.84C30.6067 6.84666 39.3934 1.49333 49.4067 1.49333C49.5934 1.49333 49.7401 1.34666 49.7401 1.15999C49.7401 0.973327 49.5934 0.82666 49.4067 0.82666C39.2734 0.82666 30.3734 6.17999 25.3667 14.2067C20.3667 6.17999 11.4601 0.82666 1.32674 0.82666C1.14007 0.82666 0.993408 0.973327 0.993408 1.15999C0.993408 1.34666 1.14007 1.49333 1.32674 1.49333C11.3467 1.49333 20.1334 6.84666 24.9867 14.8467C23.1601 17.9533 21.9134 21.44 21.3867 25.1533C19.5401 15.76 11.2534 8.65333 1.32674 8.65333Z" fill="#333333"/>
<path d="M13.0867 29.48C13.2734 29.48 13.4201 29.3334 13.4201 29.1467C13.4201 22.48 7.99341 17.0533 1.32674 17.0533C1.14007 17.0533 0.993408 17.2 0.993408 17.3867C0.993408 17.5733 1.14007 17.72 1.32674 17.72C7.62674 17.72 12.7534 22.8467 12.7534 29.1467C12.7534 29.3267 12.9067 29.48 13.0867 29.48Z" fill="#333333"/>
</svg>
